<svg width="77" height="44" viewBox="0 0 77 44" fill="none" xmlns="http://www.w3.org/2000/svg">
<path d="M0.277344 7.36415H2.52734V9.61415H0.277344V7.36415ZM2.52734 7.36415H4.77734V9.61415H2.52734V7.36415ZM4.77734 7.36415H7.02734V9.61415H4.77734V7.36415ZM7.02734 7.36415H9.27734V9.61415H7.02734V7.36415ZM9.27734 7.36415H11.5273V9.61415H9.27734V7.36415ZM11.5273 7.36415H13.7773V9.61415H11.5273V7.36415ZM11.5273 9.61415H13.7773V11.8642H11.5273V9.61415ZM9.27734 9.61415H11.5273V11.8642H9.27734V9.61415ZM7.02734 9.61415H9.27734V11.8642H7.02734V9.61415ZM4.77734 9.61415H7.02734V11.8642H4.77734V9.61415ZM2.52734 9.61415H4.77734V11.8642H2.52734V9.61415ZM0.277344 9.61415H2.52734V11.8642H0.277344V9.61415ZM13.7773 9.61415H16.0273V11.8642H13.7773V9.61415ZM13.7773 11.8642H16.0273V14.1142H13.7773V11.8642ZM13.7773 14.1142H16.0273V16.3642H13.7773V14.1142ZM11.5273 14.1142H13.7773V16.3642H11.5273V14.1142ZM11.5273 11.8642H13.7773V14.1142H11.5273V11.8642ZM11.5273 16.3642H13.7773V18.6142H11.5273V16.3642ZM9.27734 16.3642H11.5273V18.6142H9.27734V16.3642ZM7.02734 16.3642H9.27734V18.6142H7.02734V16.3642ZM4.77734 16.3642H7.02734V18.6142H4.77734V16.3642ZM2.52734 16.3642H4.77734V18.6142H2.52734V16.3642ZM2.52734 14.1142H4.77734V16.3642H2.52734V14.1142ZM2.52734 11.8642H4.77734V14.1142H2.52734V11.8642ZM0.277344 11.8642H2.52734V14.1142H0.277344V11.8642ZM0.277344 14.1142H2.52734V16.3642H0.277344V14.1142ZM0.277344 16.3642H2.52734V18.6142H0.277344V16.3642ZM0.277344 18.6142H2.52734V20.8642H0.277344V18.6142ZM2.52734 18.6142H4.77734V20.8642H2.52734V18.6142ZM4.77734 18.6142H7.02734V20.8642H4.77734V18.6142ZM7.02734 18.6142H9.27734V20.8642H7.02734V18.6142ZM9.27734 18.6142H11.5273V20.8642H9.27734V18.6142ZM11.5273 18.6142H13.7773V20.8642H11.5273V18.6142ZM13.7773 18.6142H16.0273V20.8642H13.7773V18.6142ZM13.7773 20.8642H16.0273V23.1142H13.7773V20.8642ZM11.5273 20.8642H13.7773V23.1142H11.5273V20.8642ZM11.5273 25.3642H13.7773V27.6142H11.5273V25.3642ZM13.7773 25.3642H16.0273V27.6142H13.7773V25.3642ZM13.7773 23.1142H16.0273V25.3642H13.7773V23.1142ZM11.5273 23.1142H13.7773V25.3642H11.5273V23.1142ZM11.5273 27.6142H13.7773V29.8642H11.5273V27.6142ZM9.27734 27.6142H11.5273V29.8642H9.27734V27.6142ZM7.02734 27.6142H9.27734V29.8642H7.02734V27.6142ZM4.77734 27.6142H7.02734V29.8642H4.77734V27.6142ZM2.52734 27.6142H4.77734V29.8642H2.52734V27.6142ZM0.277344 27.6142H2.52734V29.8642H0.277344V27.6142ZM0.277344 25.3642H2.52734V27.6142H0.277344V25.3642ZM0.277344 23.1142H2.52734V25.3642H0.277344V23.1142ZM0.277344 20.8642H2.52734V23.1142H0.277344V20.8642ZM2.52734 20.8642H4.77734V23.1142H2.52734V20.8642ZM2.52734 23.1142H4.77734V25.3642H2.52734V23.1142ZM2.52734 25.3642H4.77734V27.6142H2.52734V25.3642ZM4.77734 25.3642H7.02734V27.6142H4.77734V25.3642ZM7.02734 25.3642H9.27734V27.6142H7.02734V25.3642ZM9.27734 25.3642H11.5273V27.6142H9.27734V25.3642Z" fill="#F1EAEB"/>
<path d="M18.2832 27.6142H20.5332V29.8642H18.2832V27.6142ZM20.5332 27.6142H22.7832V29.8642H20.5332V27.6142ZM20.5332 25.3642H22.7832V27.6142H20.5332V25.3642ZM20.5332 23.1142H22.7832V25.3642H20.5332V23.1142ZM20.5332 20.8642H22.7832V23.1142H20.5332V20.8642ZM20.5332 18.6142H22.7832V20.8642H20.5332V18.6142ZM20.5332 16.3642H22.7832V18.6142H20.5332V16.3642ZM18.2832 16.3642H20.5332V18.6142H18.2832V16.3642ZM18.2832 18.6142H20.5332V20.8642H18.2832V18.6142ZM18.2832 20.8642H20.5332V23.1142H18.2832V20.8642ZM18.2832 23.1142H20.5332V25.3642H18.2832V23.1142ZM18.2832 25.3642H20.5332V27.6142H18.2832V25.3642ZM18.2832 14.1142H20.5332V16.3642H18.2832V14.1142ZM20.5332 14.1142H22.7832V16.3642H20.5332V14.1142ZM20.5332 11.8642H22.7832V14.1142H20.5332V11.8642ZM20.5332 9.61415H22.7832V11.8642H20.5332V9.61415ZM20.5332 7.36415H22.7832V9.61415H20.5332V7.36415ZM18.2832 7.36415H20.5332V9.61415H18.2832V7.36415ZM18.2832 9.61415H20.5332V11.8642H18.2832V9.61415ZM18.2832 11.8642H20.5332V14.1142H18.2832V11.8642Z" fill="#F1EAEB"/>
<path d="M27.3008 18.6142H29.5508V20.8642H27.3008V18.6142ZM29.5508 18.6142H31.8008V20.8642H29.5508V18.6142ZM31.8008 18.6142H34.0508V20.8642H31.8008V18.6142ZM34.0508 18.6142H36.3008V20.8642H34.0508V18.6142ZM29.5508 20.8642H31.8008V23.1142H29.5508V20.8642ZM27.3008 20.8642H29.5508V23.1142H27.3008V20.8642ZM31.8008 20.8642H34.0508V23.1142H31.8008V20.8642ZM34.0508 20.8642H36.3008V23.1142H34.0508V20.8642ZM36.3008 23.1142H38.5508V25.3642H36.3008V23.1142ZM38.5508 20.8642H40.8008V23.1142H38.5508V20.8642ZM36.3008 20.8642H38.5508V23.1142H36.3008V20.8642ZM38.5508 23.1142H40.8008V25.3642H38.5508V23.1142ZM36.3008 25.3642H38.5508V27.6142H36.3008V25.3642ZM38.5508 25.3642H40.8008V27.6142H38.5508V25.3642ZM38.5508 27.6142H40.8008V29.8642H38.5508V27.6142ZM36.3008 27.6142H38.5508V29.8642H36.3008V27.6142ZM27.3008 27.6142H29.5508V29.8642H27.3008V27.6142ZM25.0508 27.6142H27.3008V29.8642H25.0508V27.6142ZM25.0508 25.3642H27.3008V27.6142H25.0508V25.3642ZM27.3008 25.3642H29.5508V27.6142H27.3008V25.3642ZM27.3008 23.1142H29.5508V25.3642H27.3008V23.1142ZM25.0508 23.1142H27.3008V25.3642H25.0508V23.1142ZM25.0508 20.8642H27.3008V23.1142H25.0508V20.8642ZM25.0508 18.6142H27.3008V20.8642H25.0508V18.6142ZM25.0508 16.3642H27.3008V18.6142H25.0508V16.3642ZM27.3008 16.3642H29.5508V18.6142H27.3008V16.3642ZM25.0508 7.36415H27.3008V9.61415H25.0508V7.36415ZM27.3008 7.36415H29.5508V9.61415H27.3008V7.36415ZM29.5508 7.36415H31.8008V9.61415H29.5508V7.36415ZM31.8008 7.36415H34.0508V9.61415H31.8008V7.36415ZM34.0508 7.36415H36.3008V9.61415H34.0508V7.36415ZM36.3008 7.36415H38.5508V9.61415H36.3008V7.36415ZM36.3008 9.61415H38.5508V11.8642H36.3008V9.61415ZM34.0508 9.61415H36.3008V11.8642H34.0508V9.61415ZM31.8008 9.61415H34.0508V11.8642H31.8008V9.61415ZM29.5508 9.61415H31.8008V11.8642H29.5508V9.61415ZM27.3008 9.61415H29.5508V11.8642H27.3008V9.61415ZM25.0508 9.61415H27.3008V11.8642H25.0508V9.61415ZM25.0508 11.8642H27.3008V14.1142H25.0508V11.8642ZM25.0508 14.1142H27.3008V16.3642H25.0508V14.1142ZM27.3008 14.1142H29.5508V16.3642H27.3008V14.1142ZM27.3008 11.8642H29.5508V14.1142H27.3008V11.8642ZM36.3008 11.8642H38.5508V14.1142H36.3008V11.8642ZM38.5508 11.8642H40.8008V14.1142H38.5508V11.8642ZM38.5508 9.61415H40.8008V11.8642H38.5508V9.61415ZM38.5508 14.1142H40.8008V16.3642H38.5508V14.1142ZM36.3008 14.1142H38.5508V16.3642H36.3008V14.1142ZM36.3008 16.3642H38.5508V18.6142H36.3008V16.3642ZM38.5508 16.3642H40.8008V18.6142H38.5508V16.3642ZM36.3008 18.6142H38.5508V20.8642H36.3008V18.6142Z" fill="#F1EAEB"/>
<path d="M45.3066 7.36415H47.5566V9.61415H45.3066V7.36415ZM43.0566 7.36415H45.3066V9.61415H43.0566V7.36415ZM43.0566 9.61415H45.3066V11.8642H43.0566V9.61415ZM43.0566 11.8642H45.3066V14.1142H43.0566V11.8642ZM43.0566 14.1142H45.3066V16.3642H43.0566V14.1142ZM43.0566 16.3642H45.3066V18.6142H43.0566V16.3642ZM43.0566 18.6142H45.3066V20.8642H43.0566V18.6142ZM43.0566 20.8642H45.3066V23.1142H43.0566V20.8642ZM43.0566 23.1142H45.3066V25.3642H43.0566V23.1142ZM43.0566 25.3642H45.3066V27.6142H43.0566V25.3642ZM43.0566 27.6142H45.3066V29.8642H43.0566V27.6142ZM45.3066 27.6142H47.5566V29.8642H45.3066V27.6142ZM45.3066 25.3642H47.5566V27.6142H45.3066V25.3642ZM45.3066 23.1142H47.5566V25.3642H45.3066V23.1142ZM45.3066 20.8642H47.5566V23.1142H45.3066V20.8642ZM45.3066 18.6142H47.5566V20.8642H45.3066V18.6142ZM45.3066 16.3642H47.5566V18.6142H45.3066V16.3642ZM45.3066 14.1142H47.5566V16.3642H45.3066V14.1142ZM45.3066 11.8642H47.5566V14.1142H45.3066V11.8642ZM45.3066 9.61415H47.5566V11.8642H45.3066V9.61415ZM47.5566 18.6142H49.8066V20.8642H47.5566V18.6142ZM49.8066 18.6142H52.0566V20.8642H49.8066V18.6142ZM49.8066 16.3642H52.0566V18.6142H49.8066V16.3642ZM47.5566 16.3642H49.8066V18.6142H47.5566V16.3642ZM49.8066 14.1142H52.0566V16.3642H49.8066V14.1142ZM52.0566 14.1142H54.3066V16.3642H52.0566V14.1142ZM52.0566 11.8642H54.3066V14.1142H52.0566V11.8642ZM52.0566 9.61415H54.3066V11.8642H52.0566V9.61415ZM52.0566 7.36415H54.3066V9.61415H52.0566V7.36415ZM54.3066 7.36415H56.5566V9.61415H54.3066V7.36415ZM54.3066 9.61415H56.5566V11.8642H54.3066V9.61415ZM54.3066 11.8642H56.5566V14.1142H54.3066V11.8642ZM49.8066 20.8642H52.0566V23.1142H49.8066V20.8642ZM52.0566 20.8642H54.3066V23.1142H52.0566V20.8642ZM52.0566 23.1142H54.3066V25.3642H52.0566V23.1142ZM52.0566 25.3642H54.3066V27.6142H52.0566V25.3642ZM52.0566 27.6142H54.3066V29.8642H52.0566V27.6142ZM54.3066 27.6142H56.5566V29.8642H54.3066V27.6142ZM54.3066 25.3642H56.5566V27.6142H54.3066V25.3642ZM54.3066 23.1142H56.5566V25.3642H54.3066V23.1142ZM54.3066 20.8642H56.5566V23.1142H54.3066V20.8642ZM52.0566 18.6142H54.3066V20.8642H52.0566V18.6142Z" fill="#F1EAEB"/>
<path d="M19.8101 41.2253C18.0099 40.0316 16.808 38.5436 16.2045 36.7612C15.6009 34.9788 15.8297 33.2875 16.8907 31.6873C17.4477 30.8472 18.2778 30.073 19.381 29.3646C20.4442 28.6297 21.7872 27.994 23.41 27.4574C26.3765 26.5447 29.3775 26.1445 32.4131 26.2567C35.4088 26.3423 38.3981 26.5678 41.381 26.9331C41.7007 26.9722 41.9205 27.0316 42.0405 27.1112C42.1605 27.1907 42.194 27.2705 42.1409 27.3505C41.9552 27.6306 41.4763 27.7449 40.704 27.6936C38.3202 27.3801 36.2365 27.2655 34.4528 27.3499C32.6425 27.4742 30.866 27.7649 29.1231 28.2219C27.3803 28.6789 25.345 29.3164 23.0173 30.1343C21.6606 30.617 20.557 31.1522 19.7065 31.7401C18.8559 32.328 18.2185 32.942 17.794 33.5821C17.0779 34.6623 16.9141 35.7343 17.3029 36.7984C17.6651 37.9025 18.4263 38.8391 19.5864 39.6083C20.5065 40.2184 21.6393 40.6815 22.9847 40.9977C24.3301 41.3138 25.7881 41.4166 27.3587 41.3062C31.0857 41.0705 34.4847 40.0702 37.5555 38.3052C40.5998 36.5802 43.3634 34.4099 45.8464 31.7944C48.3559 29.1388 50.592 26.3309 52.5549 23.3705C54.226 20.8502 55.7108 18.3503 57.0092 15.8709C58.3076 13.3914 59.4335 11.0855 60.3866 8.95301C61.3798 6.84709 62.2008 5.08774 62.8496 3.67495C59.7861 3.08356 56.7568 2.83155 53.7617 2.91894C53.5486 2.89285 53.4021 2.85328 53.322 2.80023C53.082 2.64108 52.9748 2.36843 53.0005 1.9823C53.0661 1.62269 53.1918 1.30286 53.3775 1.02283C53.6958 0.542766 54.1145 0.302084 54.6337 0.300781C56.2714 0.349925 57.8094 0.505821 59.2478 0.76847C60.7528 1.01764 62.2315 1.39335 63.6838 1.89559C63.9621 1.389 64.4737 1.0083 65.2186 0.753492C65.9635 0.498681 66.5359 0.503902 66.936 0.769156C67.376 1.06093 67.4304 1.50012 67.0991 2.08672L66.6222 3.06641C67.5019 3.4769 68.3751 3.94066 69.2417 4.45769C70.1083 4.97471 70.9817 5.52501 71.8618 6.10856C72.4619 6.50644 73.062 6.90433 73.6621 7.30221C74.2621 7.70009 74.8357 8.13797 75.3827 8.61586C76.0898 9.19985 76.3504 9.63187 76.1648 9.9119C76.0587 10.0719 75.6856 9.93973 75.0455 9.51532C74.6054 9.22354 74.1586 8.8985 73.7051 8.54019C73.2516 8.18188 72.8048 7.85684 72.3647 7.56506C70.4045 6.26532 68.2785 5.25887 65.9869 4.54573C64.7824 7.31782 63.352 10.2569 61.6957 13.3629C60.0394 16.469 58.2033 19.5422 56.1873 22.5826C53.7735 26.2231 51.0995 29.6046 48.1652 32.7271C45.2709 35.8762 42.1487 38.4135 38.7987 40.339C35.4222 42.3044 31.8369 43.3252 28.0429 43.4013C26.4188 43.4186 24.9073 43.2227 23.5084 42.8136C22.083 42.4444 20.8503 41.9149 19.8101 41.2253Z" fill="#72E1D1"/>
<path d="M36.3008 26.3485H40.8008V28.1532H36.3008V26.3485Z" fill="#F1EAEB"/>
<path d="M52.0703 20.6923H56.5703V28.7196H52.0703V20.6923Z" fill="#F1EAEB"/>
</svg>
