<svg width="40" height="46" viewBox="0 0 40 46" fill="none" xmlns="http://www.w3.org/2000/svg">
<path d="M3.63902 40.8312L0 0H40L36.3561 40.8247L19.9757 45.3662L3.63902 40.8312Z" fill="#1572B6"/>
<path d="M20 41.8957L33.2372 38.2259L36.3513 3.33928H20V41.8957Z" fill="#33A9DC"/>
<path d="M20 18.1319H26.6267L27.0836 13.0039H20V7.99579H20.0178H32.5567L32.4368 9.33895L31.2071 23.14H20V18.1319Z" fill="white"/>
<path d="M20.0308 31.1374L20.0081 31.1439L14.4313 29.6371L14.0748 25.6432H11.3642H9.0473L9.74886 33.5062L20.0065 36.3545L20.0308 36.348V31.1374Z" fill="#EBEBEB"/>
<path d="M26.2006 22.9277L25.5979 29.6338L20.013 31.1406V36.3513L30.2787 33.5062L30.3548 32.6604L31.2249 22.9277H26.2006Z" fill="white"/>
<path d="M20.0178 7.99579V11.1066V12.9909V13.0039H7.93745H7.92124L7.82079 11.8778L7.59234 9.33895L7.47244 7.99579H20.0178Z" fill="#EBEBEB"/>
<path d="M20 18.1319V21.2427V23.127V23.14H14.5091H14.4929L14.3924 22.0139L14.1656 19.475L14.0457 18.1319H20Z" fill="#EBEBEB"/>
</svg>
