<svg width="40" height="41" viewBox="0 0 40 41" fill="none" xmlns="http://www.w3.org/2000/svg">
<path d="M3.2317 22.1327C2.2561 21.1571 2.2561 19.5753 3.2317 18.5997L18.2335 3.59788C19.2091 2.62228 20.7909 2.62228 21.7665 3.59788L36.7682 18.5997C37.7439 19.5753 37.7439 21.1571 36.7682 22.1327L21.7665 37.1344C20.7909 38.1101 19.2091 38.1101 18.2335 37.1344L3.2317 22.1327Z" fill="#EE513B"/>
<path d="M15.1861 6.69308L13.667 8.21226L17.5906 12.1359C17.4319 12.4764 17.3432 12.8562 17.3432 13.2567C17.3432 14.3937 18.0576 15.3638 19.062 15.7427V25.3409C18.0576 25.7198 17.3432 26.6899 17.3432 27.8269C17.3432 29.2939 18.5325 30.4832 19.9995 30.4832C21.4665 30.4832 22.6557 29.2939 22.6557 27.8269C22.6557 26.7962 22.0686 25.9024 21.2105 25.4622V15.7558L24.9611 19.5064C24.8101 19.8401 24.7261 20.2104 24.7261 20.6004C24.7261 22.0674 25.9154 23.2567 27.3824 23.2567C28.8494 23.2567 30.0386 22.0674 30.0386 20.6004C30.0386 19.1334 28.8494 17.9442 27.3824 17.9442C27.0972 17.9442 26.8227 17.9891 26.5652 18.0722L22.5371 14.0441C22.6142 13.7953 22.6557 13.5308 22.6557 13.2567C22.6557 11.7897 21.4665 10.6004 19.9995 10.6004C19.7254 10.6004 19.461 10.6419 19.2121 10.7191L15.1861 6.69308Z" fill="white"/>
</svg>
