<svg width="40" height="46" viewBox="0 0 40 46" fill="none" xmlns="http://www.w3.org/2000/svg">
<path d="M3.64034 40.8297L0 0.00183105H40L36.3548 40.8232L19.9757 45.3643L3.64034 40.8297Z" fill="#E44F26"/>
<path d="M20 41.8941L33.2361 38.2246L36.3499 3.34084H20V41.8941Z" fill="#F1662A"/>
<path d="M20 18.4822H13.3738L12.917 13.3546H20V8.34691H19.9822H7.44431L7.56419 9.69158L8.79384 23.4899H20V18.4822Z" fill="#EBEBEB"/>
<path d="M20 31.4866L19.9773 31.4931L14.401 29.9881L14.0445 25.9945H11.3341H9.0174L9.71889 33.8552L19.9773 36.7033L20 36.6968V31.4866Z" fill="#EBEBEB"/>
<path d="M19.9822 18.4822V23.4899H26.1482L25.5682 29.9848L19.9822 31.4915V36.7017L30.2487 33.8552L30.3232 33.0095L31.4994 19.8269L31.6225 18.4822H30.273H19.9822Z" fill="white"/>
<path d="M19.9822 8.34691V11.4575V13.3433V13.3546H32.0616H32.0778L32.1782 12.2303L32.4066 9.69158L32.5265 8.34691H19.9822Z" fill="white"/>
</svg>
