<svg width="40" height="41" viewBox="0 0 40 41" fill="none" xmlns="http://www.w3.org/2000/svg">
<path d="M20 38.1831C29.665 38.1831 37.5 30.3481 37.5 20.6831C37.5 11.0181 29.665 3.18309 20 3.18309C10.335 3.18309 2.5 11.0181 2.5 20.6831C2.5 30.3481 10.335 38.1831 20 38.1831Z" fill="#0769AD"/>
<path d="M28.3216 17.4595C29.8929 17.4595 31.3315 16.9355 32.4437 16.0663C31.289 17.5878 29.3759 18.5826 27.2111 18.5826C23.6846 18.5826 20.8259 15.9427 20.8259 12.6863C20.8259 10.8807 21.7047 9.26468 23.089 8.18309C22.3626 9.14019 21.9364 10.3057 21.9364 11.5632C21.9364 14.8196 24.7951 17.4595 28.3216 17.4595Z" fill="#78CFF5"/>
<path d="M32.383 21.5063C30.689 22.8351 28.496 23.6366 26.1006 23.6366C20.7343 23.6366 16.3839 19.614 16.3839 14.6517C16.3839 12.7271 17.0384 10.9438 18.1526 9.48177C16.0516 11.1299 14.7181 13.5891 14.7181 16.3363C14.7181 21.2986 19.0685 25.3213 24.4349 25.3213C27.72 25.3213 30.6243 23.814 32.383 21.5063Z" fill="#78CFF5"/>
<path d="M32.5 26.6457C30.0861 28.9492 26.7421 30.3753 23.0469 30.3753C15.6871 30.3753 9.72098 24.7185 9.72098 17.7403C9.72098 15.5291 10.32 13.4506 11.3727 11.6427C8.97903 13.9268 7.5 17.0737 7.5 20.5481C7.5 27.5262 13.4661 33.1831 20.8259 33.1831C25.8534 33.1831 30.2307 30.5432 32.5 26.6457Z" fill="#78CFF5"/>
</svg>
