<svg width="40" height="41" viewBox="0 0 40 41" fill="none" xmlns="http://www.w3.org/2000/svg">
<path d="M33.345 30.4487C33.095 30.1687 32.98 29.6512 32.8525 29.0987C32.7275 28.5487 32.585 27.9562 32.1325 27.5737V27.5712C31.9674 27.4281 31.7788 27.3148 31.575 27.2362C32.205 25.3737 31.9575 23.5187 31.325 21.8437C30.545 19.7862 29.1875 17.9937 28.15 16.7687C26.99 15.3037 25.855 13.9137 25.875 11.8612C25.91 8.72617 26.22 2.91367 20.705 2.90617C20.48 2.90617 20.2475 2.91617 20.005 2.93617C13.84 3.43117 15.475 9.94367 15.3825 12.1237C15.27 13.7187 14.9475 14.9737 13.85 16.5337C12.5625 18.0662 10.75 20.5437 9.89 23.1262C9.485 24.3437 9.29 25.5862 9.47 26.7612C9.4125 26.8112 9.35999 26.8637 9.30999 26.9187C8.9325 27.3212 8.65249 27.8112 8.33999 28.1412C8.04999 28.4312 7.63499 28.5412 7.18 28.7037C6.72249 28.8687 6.2225 29.1087 5.92 29.6912V29.6937C5.78579 29.9556 5.71959 30.247 5.72749 30.5412C5.72749 30.8112 5.76749 31.0837 5.80749 31.3462C5.89249 31.8962 5.97749 32.4137 5.86499 32.7637C5.50499 33.7512 5.4575 34.4312 5.7125 34.9262C5.9675 35.4237 6.4875 35.6412 7.08 35.7637C8.2625 36.0137 9.865 35.9512 11.1275 36.6187C12.4775 37.3262 13.85 37.5762 14.9425 37.3287C15.3245 37.2537 15.6834 37.0896 15.9901 36.8498C16.2968 36.61 16.5426 36.3013 16.7075 35.9487C17.5625 35.9437 18.5 35.5837 20.0025 35.4987C21.0225 35.4187 22.2975 35.8612 23.76 35.7812C23.7979 35.94 23.855 36.0936 23.93 36.2387L23.9325 36.2412C24.5 37.3787 25.5575 37.8962 26.6825 37.8087C27.8075 37.7187 29.0025 37.0562 29.97 35.9037C30.895 34.7837 32.425 34.3212 33.44 33.7087C33.9475 33.4012 34.36 33.0187 34.39 32.4612C34.4225 31.9062 34.095 31.2837 33.345 30.4487Z" fill="#202020"/>
<path d="M33.9275 32.4362C33.91 32.7787 33.66 33.0362 33.2025 33.3112C32.2825 33.8662 30.655 34.3462 29.6175 35.6062C28.7125 36.6812 27.6125 37.2687 26.6425 37.3462C25.675 37.4212 24.84 37.0212 24.345 36.0312V36.0262C24.0375 35.4437 24.165 34.5262 24.4225 33.5587C24.68 32.5912 25.05 31.5962 25.1 30.7887C25.15 29.7512 25.21 28.8462 25.385 28.1487C25.56 27.4487 25.8325 26.9787 26.3175 26.7112C26.3398 26.6991 26.3623 26.6875 26.385 26.6762C26.44 27.5737 26.885 28.4887 27.67 28.6862C28.5275 28.9112 29.765 28.1762 30.2875 27.5737L30.5925 27.5637C31.0525 27.5512 31.435 27.5787 31.83 27.9212C32.1325 28.1762 32.2775 28.6637 32.4025 29.2037C32.5275 29.7462 32.6275 30.3362 33 30.7562C33.7175 31.5562 33.95 32.0912 33.9275 32.4362ZM16.48 34.9737V34.9812C16.395 36.0687 15.78 36.6612 14.84 36.8762C13.8975 37.0912 12.62 36.8762 11.345 36.2112C9.93251 35.4612 8.25251 35.5362 7.17751 35.3112C6.63751 35.1987 6.28501 35.0287 6.12501 34.7162C5.96501 34.4012 5.96 33.8537 6.30251 32.9162V32.9137L6.30501 32.9087C6.47501 32.3862 6.35001 31.8137 6.26751 31.2762C6.18501 30.7412 6.145 30.2512 6.3275 29.9112L6.33001 29.9087C6.56501 29.4562 6.91001 29.2937 7.33751 29.1412C7.76251 28.9862 8.27001 28.8662 8.67001 28.4662L8.67251 28.4637C9.04251 28.0712 9.32501 27.5812 9.65001 27.2337C9.92501 26.9412 10.2 26.7462 10.6125 26.7437H10.625C10.7029 26.7444 10.7806 26.7511 10.8575 26.7637C11.4075 26.8462 11.885 27.2312 12.3475 27.8562L13.68 30.2837V30.2862C14.035 31.0262 14.7825 31.8412 15.4175 32.6712C16.0525 33.5037 16.5425 34.3362 16.48 34.9737Z" fill="#F8BF11"/>
<path d="M23.125 12.3362C23.0175 12.1262 22.8 11.9262 22.425 11.7737C21.65 11.4412 21.315 11.4187 20.8825 11.1387C20.1825 10.6862 19.6 10.5287 19.1175 10.5287C18.8859 10.5298 18.6561 10.5695 18.4375 10.6462C17.8475 10.8462 17.4575 11.2712 17.2125 11.5012C17.1625 11.5487 17.1025 11.5887 16.9525 11.7012C16.8025 11.8087 16.5775 11.9762 16.2525 12.2212C15.96 12.4362 15.8675 12.7212 15.9675 13.0512C16.0675 13.3812 16.385 13.7637 16.9675 14.0937C17.33 14.3062 17.58 14.5937 17.865 14.8212C18.0081 14.9402 18.1672 15.0386 18.3375 15.1137C18.5175 15.1912 18.7275 15.2437 18.9875 15.2587C19.6075 15.2962 20.0625 15.1087 20.4625 14.8812C20.8625 14.6512 21.2025 14.3712 21.5925 14.2437C22.3925 13.9937 22.965 13.4912 23.145 13.0112C23.1904 12.9039 23.2121 12.788 23.2087 12.6715C23.2052 12.555 23.1767 12.4406 23.125 12.3362Z" fill="#D6A312"/>
<path d="M21.095 13.5162C20.4575 13.8487 19.715 14.2512 18.9225 14.2512C18.1325 14.2512 17.5075 13.8862 17.06 13.5287C16.835 13.3537 16.6525 13.1737 16.515 13.0462C16.275 12.8587 16.305 12.5937 16.4025 12.6012C16.5675 12.6212 16.5925 12.8387 16.695 12.9362C16.835 13.0662 17.01 13.2362 17.2225 13.4037C17.6475 13.7412 18.215 14.0687 18.9225 14.0687C19.6325 14.0687 20.4575 13.6537 20.9625 13.3687C21.25 13.2087 21.6125 12.9212 21.91 12.7037C22.135 12.5362 22.1275 12.3362 22.315 12.3587C22.5025 12.3812 22.365 12.5812 22.1025 12.8087C21.84 13.0387 21.4275 13.3437 21.095 13.5162Z" fill="#202020"/>
<path d="M30.8425 27.1012C30.7559 27.0986 30.6691 27.0986 30.5825 27.1012H30.5575C30.7775 26.4087 30.2925 25.9012 29.005 25.3187C27.67 24.7312 26.605 24.7887 26.425 25.9812C26.4125 26.0437 26.4025 26.1062 26.3975 26.1712C26.294 26.2079 26.1936 26.253 26.0975 26.3062C25.4675 26.6487 25.125 27.2712 24.935 28.0362C24.745 28.7987 24.69 29.7212 24.6375 30.7612C24.605 31.2812 24.39 31.9862 24.1725 32.7362C21.985 34.2962 18.9475 34.9712 16.3675 33.2112C16.1925 32.9362 15.9925 32.6612 15.785 32.3912C15.6533 32.2191 15.5199 32.0483 15.385 31.8787C15.6147 31.8848 15.843 31.8422 16.055 31.7537C16.1609 31.7092 16.2567 31.6438 16.3367 31.5613C16.4166 31.4788 16.4789 31.381 16.52 31.2737C16.6775 30.8487 16.52 30.2537 16.015 29.5737C15.5125 28.8912 14.66 28.1237 13.4075 27.3537C12.4875 26.7787 11.9725 26.0787 11.7325 25.3187C11.49 24.5562 11.5225 23.7312 11.7075 22.9187C12.065 21.3562 12.9825 19.8362 13.565 18.8837C13.7225 18.7687 13.6225 19.0987 12.975 20.3012C12.395 21.4012 11.3075 23.9387 12.795 25.9212C12.835 24.5112 13.17 23.0712 13.7375 21.7287C14.56 19.8612 16.2825 16.6262 16.4175 14.0462C16.49 14.0962 16.73 14.2612 16.84 14.3212C17.155 14.5087 17.3925 14.7812 17.7 15.0287C18.101 15.3671 18.613 15.5452 19.1375 15.5287C19.7375 15.5287 20.205 15.3312 20.5925 15.1087C21.0175 14.8687 21.3525 14.5987 21.675 14.4962C22.35 14.2837 22.89 13.9087 23.195 13.4712C23.72 15.5462 24.945 18.5387 25.73 19.9987C26.1475 20.7737 26.98 22.4212 27.3375 24.4037C27.565 24.3987 27.815 24.4287 28.085 24.4987C29.0225 22.0662 27.2875 19.4437 26.495 18.7137C26.175 18.4037 26.1575 18.2637 26.32 18.2712C27.1775 19.0312 28.3075 20.5637 28.72 22.2912C28.9075 23.0787 28.945 23.9062 28.745 24.7237C28.845 24.7662 28.945 24.8087 29.045 24.8587C30.5525 25.5912 31.11 26.2287 30.8425 27.1012Z" fill="white"/>
<path d="M20.1 20.5212C18.71 20.5262 17.3525 21.1487 16.205 22.3112C15.055 23.4712 14.17 25.1162 13.66 27.0312L13.8125 27.1262V27.1362C14.9875 27.8812 15.825 28.6312 16.3425 29.3312C16.89 30.0712 17.1325 30.7912 16.9 31.4162C16.7773 31.7319 16.5346 31.9862 16.225 32.1237L16.1225 32.1612C16.3075 32.4037 16.4875 32.6537 16.655 32.9112C19.015 34.4812 21.76 33.9012 23.8225 32.4812C24.0225 31.7862 24.205 31.1412 24.23 30.7362C24.2825 29.6987 24.335 28.7562 24.54 27.9362C24.745 27.1112 25.145 26.3612 25.9 25.9487C25.9425 25.9237 25.985 25.9112 26.0275 25.8912C26.0408 25.8118 26.0592 25.7333 26.0825 25.6562C25.4775 24.1012 24.605 22.8062 23.5575 21.9062C22.5075 21.0062 21.315 20.5287 20.1025 20.5212H20.1ZM26.025 25.9087L26.02 25.9212V25.9162L26.0225 25.9062L26.025 25.9087Z" fill="#E6E6E6"/>
<path d="M23.195 9.94868C23.2058 10.5403 23.0164 11.1182 22.6575 11.5887C22.478 11.5085 22.2963 11.4335 22.1125 11.3637L21.795 11.2512C21.8675 11.1637 22.0075 11.0637 22.0625 10.9337C22.1417 10.7407 22.1841 10.5347 22.1875 10.3262L22.19 10.3012C22.1962 10.1009 22.1666 9.90106 22.1025 9.71118C22.0522 9.53776 21.9594 9.37965 21.8325 9.25118C21.7822 9.19778 21.7219 9.15484 21.6549 9.12481C21.588 9.09478 21.5158 9.07825 21.4425 9.07618H21.425C21.285 9.07812 21.1506 9.13151 21.0475 9.22618C20.911 9.34436 20.8062 9.49474 20.7425 9.66368C20.6637 9.85673 20.6213 10.0627 20.6175 10.2712V10.2962C20.6135 10.4133 20.6211 10.5305 20.64 10.6462C20.3564 10.5153 20.0597 10.4147 19.755 10.3462C19.7405 10.2359 19.7321 10.1249 19.73 10.0137V9.98118C19.7194 9.59696 19.7946 9.21521 19.95 8.86368C20.0824 8.54 20.298 8.2571 20.575 8.04368C20.82 7.84582 21.1251 7.73736 21.44 7.73618H21.455C21.7675 7.73618 22.035 7.82618 22.31 8.02618C22.5931 8.23345 22.8151 8.51328 22.9525 8.83618C23.11 9.18118 23.1875 9.51868 23.195 9.91868L23.1975 9.94868H23.195ZM18.47 10.3587C18.2252 10.4287 17.992 10.534 17.7775 10.6712C17.7943 10.5468 17.7959 10.4209 17.7825 10.2962V10.2762C17.7672 10.111 17.7267 9.94913 17.6625 9.79618C17.611 9.66159 17.5289 9.54088 17.4225 9.44368C17.3834 9.40533 17.3368 9.37553 17.2856 9.35616C17.2344 9.33679 17.1797 9.32828 17.125 9.33118C17.02 9.34118 16.9325 9.39118 16.85 9.49368C16.7622 9.60832 16.7023 9.74185 16.675 9.88368C16.636 10.0516 16.625 10.2247 16.6425 10.3962V10.4162C16.6569 10.5823 16.6974 10.7452 16.7625 10.8987C16.8223 11.0524 16.9225 11.1871 17.0525 11.2887L16.7975 11.4887L16.6025 11.6287C16.4293 11.4583 16.2931 11.2541 16.2025 11.0287C16.07 10.7287 15.9975 10.4287 15.9775 10.0762V10.0737C15.9546 9.74452 15.9927 9.41397 16.09 9.09868C16.1646 8.82371 16.3083 8.57241 16.5075 8.36868C16.591 8.27643 16.6929 8.20257 16.8065 8.15178C16.9201 8.101 17.043 8.0744 17.1675 8.07368C17.3775 8.07368 17.5625 8.14368 17.755 8.29868C17.9749 8.47931 18.146 8.71226 18.2525 8.97618C18.385 9.27618 18.4525 9.57618 18.475 9.93118C18.4825 10.0812 18.4825 10.2212 18.47 10.3587Z" fill="white"/>
<path d="M19.515 11.2037C19.54 11.2887 19.6775 11.2762 19.7575 11.3162C19.825 11.3512 19.8825 11.4287 19.9575 11.4312C20.0325 11.4337 20.1475 11.4062 20.1575 11.3312C20.17 11.2362 20.0275 11.1737 19.9375 11.1387C19.82 11.0912 19.67 11.0687 19.56 11.1312C19.535 11.1437 19.5075 11.1737 19.515 11.2037ZM18.71 11.2037C18.685 11.2887 18.5475 11.2762 18.47 11.3162C18.4 11.3512 18.345 11.4287 18.2675 11.4312C18.1925 11.4337 18.0775 11.4062 18.0675 11.3312C18.055 11.2362 18.1975 11.1737 18.2875 11.1387C18.405 11.0912 18.5575 11.0687 18.6675 11.1312C18.6925 11.1437 18.7175 11.1737 18.71 11.2037Z" fill="#202020"/>
</svg>
