
<svg width="40" height="41" viewBox="0 0 40 41" fill="none" xmlns="http://www.w3.org/2000/svg">
<path d="M36.7325 9.05809C36.1913 9.07559 36.3575 9.23184 35.1938 9.51934C33.878 9.655 32.5759 9.90087 31.3013 10.2543C27.5075 11.8456 26.7463 17.2843 23.3013 19.2318C20.7225 20.6881 18.1225 20.8043 15.7838 21.5368C14.0877 22.1178 12.5217 23.0248 11.1738 24.2068C10.0925 25.1381 10.065 25.9568 8.93501 27.1268C7.72751 28.3768 4.13376 27.1481 2.50626 29.0606C3.03126 29.5906 3.25626 29.7393 4.29501 29.6018C4.08126 30.0081 2.82001 30.3518 3.06626 30.9456C3.32626 31.5706 6.37626 31.9993 9.14876 30.3206C10.44 29.5406 11.4688 28.4168 13.48 28.1493C16.3672 27.9942 19.2623 28.2152 22.0925 28.8068C21.5672 29.9937 20.8724 31.0981 20.03 32.0856C19.8075 32.3256 20.4763 32.3518 21.24 32.2106C22.428 31.9782 23.5742 31.5682 24.64 30.9943C25.9138 30.2531 26.1063 28.3518 27.6688 27.9406C28.2368 28.6111 29.0364 29.0434 29.9085 29.1516C30.7807 29.2597 31.6616 29.0358 32.3763 28.5243C31.0875 28.1593 30.7313 25.4156 31.1663 24.2056C31.5788 23.0606 31.9863 21.2293 32.4013 19.7168C32.8475 18.0918 33.0113 16.0431 33.5513 15.2168C34.2462 14.2956 35.0864 13.4935 36.0388 12.8418C36.5118 12.5046 36.8933 12.0547 37.1484 11.5328C37.4036 11.0109 37.5244 10.4335 37.5 9.85309C37.4925 9.33559 37.225 9.04684 36.7325 9.06309V9.05809Z" fill="#002B64"/>
<path d="M3.625 30.8356C5.24485 31.1159 6.91185 30.8752 8.38625 30.1481C9.75851 29.3013 11.1774 28.5326 12.6362 27.8456C14.9762 27.0956 17.5412 27.8456 20.0425 27.9968C20.6459 28.0386 21.2518 28.0294 21.8537 27.9693C22.785 27.3968 22.7662 25.2543 23.6725 25.0581C23.6151 27.4721 22.7137 29.7897 21.125 31.6081C22.3016 31.4139 23.4127 30.9341 24.3609 30.2108C25.3091 29.4876 26.0654 28.5428 26.5637 27.4593C26.9042 26.8022 27.1967 26.1213 27.4387 25.4218C27.8275 25.7206 27.6075 26.6281 27.8025 27.1193C29.6775 26.0768 30.7437 23.6993 31.4537 21.2943C32.2737 18.5106 32.61 15.6931 33.14 14.8693C33.6941 14.1381 34.3863 13.5227 35.1775 13.0581C35.6187 12.8274 36.0016 12.4992 36.2973 12.0986C36.5929 11.6979 36.7934 11.2352 36.8837 10.7456C36.0087 10.6643 35.8012 10.4606 35.6712 10.0181C35.2716 10.234 34.8229 10.3426 34.3687 10.3331C33.9725 10.3456 33.5362 10.3331 33.0037 10.3818C28.6 10.8343 28.04 15.6881 25.2175 18.4406C25.0092 18.6424 24.7879 18.8303 24.555 19.0031C23.5304 19.7127 22.415 20.2812 21.2387 20.6931C19.4337 21.3831 17.7175 21.4318 16.0237 22.0268C14.7792 22.4653 13.5952 23.0596 12.5 23.7956C12.25 23.9706 12 24.1493 11.7825 24.3306C11.2467 24.7898 10.7832 25.3271 10.4075 25.9243C10.0194 26.5483 9.56735 27.1302 9.05875 27.6606C8.1225 28.5793 4.62625 27.9281 3.395 28.7856C3.26241 28.8735 3.1527 28.9918 3.075 29.1306C3.74625 29.4356 4.2 29.2481 4.9675 29.3343C5.06875 30.0681 3.37375 30.5031 3.62375 30.8406L3.625 30.8356Z" fill="#C49A6C"/>
<path d="M31.5388 12.2031C31.7016 12.3412 31.9031 12.4258 32.1157 12.4455C32.3284 12.4651 32.542 12.4188 32.7274 12.3129C32.9128 12.2069 33.0611 12.0464 33.1522 11.8533C33.2432 11.6601 33.2726 11.4435 33.2363 11.2331C32.2675 11.1518 31.7063 11.4806 31.5388 12.2031Z" fill="#002B64"/>
<path d="M35.885 10.9443C35.5728 11.4498 35.4054 12.0314 35.4012 12.6256C35.4012 12.7781 35.2862 12.8756 35.2837 12.6468C35.2815 12.0364 35.4481 11.4373 35.765 10.9156C35.875 10.7156 35.9462 10.7981 35.885 10.9443Z" fill="#002B64"/>
<path d="M35.7175 10.8081C35.32 11.3424 35.0622 11.9676 34.9675 12.6268C34.9525 12.7781 34.83 12.8768 34.8487 12.6381C34.9386 11.9623 35.1965 11.3198 35.5987 10.7693C35.7312 10.5843 35.7925 10.6731 35.7175 10.8081Z" fill="#002B64"/>
<path d="M35.5663 10.6393C35.0538 11.1816 34.6769 11.8374 34.4663 12.5531C34.4388 12.7018 34.3088 12.7856 34.3413 12.5531C34.5529 11.822 34.9316 11.1502 35.4475 10.5906C35.5988 10.4131 35.6513 10.5068 35.5663 10.6393Z" fill="#002B64"/>
<path d="M35.43 10.4456C34.8361 11.033 34.3604 11.7289 34.0288 12.4956C33.98 12.6393 33.84 12.7043 33.91 12.4806C34.2395 11.6954 34.7203 10.9827 35.325 10.3831C35.4938 10.2256 35.5338 10.3256 35.43 10.4456Z" fill="#002B64"/>
</svg>
