<svg width="40" height="41" viewBox="0 0 40 41" fill="none" xmlns="http://www.w3.org/2000/svg">
<path d="M20 29.8893C29.665 29.8893 37.5 25.7676 37.5 20.6831C37.5 15.5986 29.665 11.4768 20 11.4768C10.335 11.4768 2.5 15.5986 2.5 20.6831C2.5 25.7676 10.335 29.8893 20 29.8893Z" fill="url(#paint0_radial_19_57)"/>
<path d="M20 29.2056C29.2874 29.2056 36.8162 25.3899 36.8162 20.6831C36.8162 15.9762 29.2874 12.1606 20 12.1606C10.7126 12.1606 3.18375 15.9762 3.18375 20.6831C3.18375 25.3899 10.7126 29.2056 20 29.2056Z" fill="#6280B6"/>
<path d="M23.4062 23.4331L24.24 19.1406C24.3588 18.7732 24.3783 18.381 24.2967 18.0036C24.215 17.6263 24.035 17.2772 23.775 16.9918C23.0492 16.4764 22.1604 16.2431 21.275 16.3356H19.8337L20.2475 14.2106C20.255 14.171 20.2537 14.1303 20.2437 14.0913C20.2337 14.0523 20.2152 14.0159 20.1895 13.9849C20.1639 13.9538 20.1317 13.9289 20.0952 13.9117C20.0588 13.8945 20.019 13.8856 19.9787 13.8856H17.9787C17.9152 13.8856 17.8537 13.9076 17.8047 13.948C17.7556 13.9884 17.7222 14.0445 17.71 14.1068L16.8237 18.6643C16.7555 18.1771 16.5485 17.7197 16.2275 17.3468C15.87 16.9889 15.4388 16.7131 14.9638 16.5389C14.4889 16.3647 13.9816 16.2962 13.4775 16.3381H9.62499C9.56148 16.3381 9.49995 16.3601 9.45092 16.4005C9.40189 16.4409 9.36842 16.497 9.35624 16.5593L7.56374 25.7843C7.5562 25.8239 7.55748 25.8646 7.5675 25.9037C7.57751 25.9427 7.59602 25.979 7.62168 26.01C7.64735 26.0411 7.67956 26.0661 7.71599 26.0832C7.75243 26.1004 7.79221 26.1093 7.83249 26.1093H9.83624C9.89975 26.1094 9.96128 26.0873 10.0103 26.0469C10.0593 26.0066 10.0928 25.9504 10.105 25.8881L10.5387 23.6568H12.0387C12.701 23.6745 13.3621 23.5902 13.9987 23.4068C14.5355 23.2292 15.0264 22.9351 15.4362 22.5456C15.7721 22.2397 16.0588 21.8838 16.2862 21.4906L15.9275 23.3343C15.9199 23.3739 15.9212 23.4147 15.9312 23.4537C15.9413 23.4927 15.9598 23.529 15.9854 23.56C16.0111 23.5911 16.0433 23.6161 16.0797 23.6332C16.1162 23.6504 16.156 23.6593 16.1962 23.6593H18.1962C18.2597 23.6594 18.3213 23.6373 18.3703 23.5969C18.4193 23.5566 18.4528 23.5004 18.465 23.4381L19.4487 18.3743H20.8162C21.3987 18.3743 21.5662 18.4906 21.6162 18.5406C21.6662 18.5906 21.7412 18.7468 21.6475 19.2518L20.8537 23.3331C20.8462 23.3727 20.8475 23.4134 20.8575 23.4524C20.8675 23.4914 20.886 23.5277 20.9117 23.5588C20.9374 23.5898 20.9696 23.6148 21.006 23.632C21.0424 23.6492 21.0822 23.6581 21.1225 23.6581H23.1475C23.2098 23.6557 23.2694 23.632 23.3165 23.5911C23.3635 23.5502 23.3952 23.4945 23.4062 23.4331ZM14.1625 19.8906C14.1014 20.4154 13.8522 20.9003 13.4612 21.2556C12.9701 21.5611 12.3942 21.7017 11.8175 21.6568H10.9275L11.5712 18.3431H12.7225C13.5687 18.3431 13.9087 18.5243 14.0462 18.6756C14.1511 18.8581 14.2158 19.061 14.2358 19.2705C14.2559 19.4801 14.2309 19.6915 14.1625 19.8906Z" fill="white"/>
<path d="M31.9325 17.3481C31.575 16.9901 31.1438 16.7144 30.6688 16.5402C30.1939 16.3659 29.6867 16.2974 29.1825 16.3393H25.3187C25.2552 16.3393 25.1937 16.3614 25.1447 16.4017C25.0956 16.4421 25.0622 16.4983 25.05 16.5606L23.2575 25.7856C23.25 25.8252 23.2512 25.8659 23.2613 25.9049C23.2713 25.9439 23.2898 25.9802 23.3154 26.0113C23.3411 26.0423 23.3733 26.0673 23.4097 26.0845C23.4462 26.1016 23.486 26.1106 23.5262 26.1106H25.5362C25.5998 26.1106 25.6613 26.0885 25.7103 26.0482C25.7593 26.0078 25.7928 25.9517 25.805 25.8893L26.2387 23.6581H27.7387C28.401 23.6758 29.0621 23.5914 29.6987 23.4081C30.2355 23.2305 30.7264 22.9364 31.1362 22.5468C31.8381 21.9143 32.311 21.0674 32.4812 20.1381C32.6157 19.6627 32.6361 19.1622 32.5408 18.6774C32.4454 18.1926 32.237 17.7372 31.9325 17.3481ZM29.8487 19.8906C29.7876 20.4154 29.5385 20.9003 29.1475 21.2556C28.6551 21.5614 28.0778 21.7016 27.5 21.6556H26.6125L27.2562 18.3418H28.4075C29.2537 18.3418 29.5937 18.5231 29.7312 18.6743C29.8365 18.8569 29.9015 19.0599 29.9217 19.2697C29.942 19.4795 29.9171 19.6912 29.8487 19.8906Z" fill="white"/>
<path d="M12.7225 18.0681C12.9922 18.0341 13.266 18.054 13.5279 18.1265C13.7899 18.199 14.0349 18.3228 14.2488 18.4906C14.3868 18.703 14.4748 18.944 14.5061 19.1954C14.5375 19.4468 14.5115 19.702 14.43 19.9418C14.3586 20.5324 14.073 21.0763 13.6275 21.4706C13.0902 21.8167 12.455 21.979 11.8175 21.9331H10.595L11.345 18.0718L12.7225 18.0681ZM7.82626 25.8381H9.83626L10.3125 23.3856H12.0338C12.6673 23.4029 13.2998 23.3223 13.9088 23.1468C14.4086 22.9818 14.8654 22.7077 15.2463 22.3443C15.9054 21.7514 16.3494 20.9566 16.5088 20.0843C16.6349 19.6506 16.6571 19.1932 16.5735 18.7493C16.4898 18.3054 16.3028 17.8875 16.0275 17.5293C15.6956 17.201 15.296 16.949 14.8567 16.791C14.4173 16.633 13.9488 16.5727 13.4838 16.6143H9.62501L7.82626 25.8381Z" fill="#000004"/>
<path d="M17.9837 14.1606H19.9837L19.5 16.6131H21.2762C22.0921 16.5277 22.9117 16.735 23.5887 17.1981C23.8128 17.4528 23.966 17.762 24.0329 18.0946C24.0999 18.4272 24.0782 18.7715 23.97 19.0931L23.1362 23.3856H21.1125L21.9062 19.3043C21.9615 19.1486 21.9812 18.9824 21.9639 18.818C21.9466 18.6536 21.8928 18.4952 21.8062 18.3543C21.5168 18.147 21.1592 18.0576 20.8062 18.1043H19.2125L18.185 23.3893H16.185L17.9837 14.1606Z" fill="#000004"/>
<path d="M28.4088 18.0681C28.6785 18.0341 28.9522 18.054 29.2142 18.1265C29.4762 18.199 29.7212 18.3228 29.935 18.4906C30.073 18.703 30.161 18.944 30.1924 19.1954C30.2238 19.4468 30.1978 19.702 30.1163 19.9418C30.0448 20.5324 29.7593 21.0763 29.3138 21.4706C28.7754 21.8175 28.1388 21.9798 27.5 21.9331H26.2775L27.0275 18.0718L28.4088 18.0681ZM23.5125 25.8381H25.5225L25.9988 23.3856H27.72C28.3536 23.4029 28.986 23.3223 29.595 23.1468C30.0948 22.9818 30.5517 22.7077 30.9325 22.3443C31.5917 21.7514 32.0357 20.9566 32.195 20.0843C32.3212 19.6506 32.3433 19.1932 32.2597 18.7493C32.1761 18.3054 31.9891 17.8875 31.7138 17.5293C31.3818 17.201 30.9822 16.949 30.5429 16.791C30.1036 16.633 29.635 16.5727 29.17 16.6143H25.305L23.5125 25.8381Z" fill="#000004"/>
<defs>
<radialGradient id="paint0_radial_19_57" cx="0" cy="0" r="1" gradientUnits="userSpaceOnUse" gradientTransform="translate(13.0075 14.7143) scale(22.98)">
<stop stop-color="white"/>
<stop offset="0.5" stop-color="#4C6B96"/>
<stop offset="1" stop-color="#231F20"/>
</radialGradient>
</defs>
</svg>
