<svg width="41" height="40" viewBox="0 0 41 40" fill="none" xmlns="http://www.w3.org/2000/svg">
<path fill-rule="evenodd" clip-rule="evenodd" d="M16.768 2.5C14.0216 2.5 11.7953 4.65566 11.7953 7.31481V10.6482H20.4019V11.5741H7.97017C5.22383 11.5741 2.9975 13.7298 2.9975 16.3889V23.6111C2.9975 26.2703 5.22383 28.4259 7.97017 28.4259H10.839V24.3519C10.839 21.6928 13.0654 19.537 15.8117 19.537H24.992C27.3159 19.537 29.1996 17.713 29.1996 15.463V7.31481C29.1996 4.65566 26.9734 2.5 24.227 2.5H16.768ZM15.6205 8.42592C16.5711 8.42592 17.3417 7.67973 17.3417 6.75926C17.3417 5.83879 16.5711 5.09259 15.6205 5.09259C14.6697 5.09259 13.8991 5.83879 13.8991 6.75926C13.8991 7.67973 14.6697 8.42592 15.6205 8.42592Z" fill="url(#paint0_linear_19_98)"/>
<path fill-rule="evenodd" clip-rule="evenodd" d="M24.2267 37.5C26.9731 37.5 29.1995 35.3444 29.1995 32.6852V29.3519H20.5929V28.426H33.0246C35.771 28.426 37.9972 26.2702 37.9972 23.6111V16.3889C37.9972 13.7297 35.771 11.5741 33.0246 11.5741H30.1557V15.6481C30.1557 18.3074 27.9294 20.463 25.1831 20.463H16.0027C13.6789 20.463 11.7951 22.287 11.7951 24.537V32.6852C11.7951 35.3444 14.0215 37.5 16.7677 37.5H24.2267ZM25.3744 31.5741C24.4236 31.5741 23.653 32.3202 23.653 33.2407C23.653 34.1612 24.4236 34.9074 25.3744 34.9074C26.325 34.9074 27.0956 34.1612 27.0956 33.2407C27.0956 32.3202 26.325 31.5741 25.3744 31.5741Z" fill="url(#paint1_linear_19_98)"/>
<defs>
<linearGradient id="paint0_linear_19_98" x1="16.0986" y1="2.5" x2="16.0986" y2="28.4259" gradientUnits="userSpaceOnUse">
<stop stop-color="#327EBD"/>
<stop offset="1" stop-color="#1565A7"/>
</linearGradient>
<linearGradient id="paint1_linear_19_98" x1="24.8962" y1="11.5741" x2="24.8962" y2="37.5" gradientUnits="userSpaceOnUse">
<stop stop-color="#FFDA4B"/>
<stop offset="1" stop-color="#F9C600"/>
</linearGradient>
</defs>
</svg>
