<svg width="36" height="40" viewBox="0 0 36 40" fill="none" xmlns="http://www.w3.org/2000/svg">
<path d="M35.4957 11.7814C35.4954 11.1106 35.3519 10.5178 35.0618 10.009C34.7768 9.50876 34.35 9.08946 33.7775 8.75793C29.0518 6.03307 24.3215 3.31654 19.5974 0.588899C18.3238 -0.146378 17.0889 -0.119573 15.8247 0.626261C13.9438 1.73557 4.52639 7.13098 1.72014 8.7564C0.564444 9.42543 0.00208333 10.4493 0.00180556 11.7801C0 17.26 0.00180556 22.7397 0 28.2197C0 28.8758 0.137639 29.4571 0.415 29.9582C0.700139 30.4736 1.13292 30.9045 1.71861 31.2435C4.525 32.8689 13.9436 38.2639 15.8242 39.3735C17.0889 40.1197 18.3238 40.1464 19.5978 39.4108C24.3221 36.6831 29.0526 33.9667 33.779 31.2418C34.3647 30.9029 34.7975 30.4718 35.0826 29.9568C35.3596 29.4557 35.4975 28.8745 35.4975 28.2182C35.4975 28.2182 35.4975 17.2614 35.4957 11.7814Z" fill="#A179DC"/>
<path d="M17.803 19.9465L0.414993 29.9582C0.700132 30.4736 1.13291 30.9045 1.7186 31.2435C4.52499 32.8689 13.9436 38.2639 15.8242 39.3735C17.0889 40.1197 18.3237 40.1464 19.5978 39.4108C24.3221 36.6831 29.0526 33.9667 33.779 31.2418C34.3647 30.9029 34.7975 30.4718 35.0826 29.9568L17.803 19.9465Z" fill="#280068"/>
<path d="M35.4957 11.7814C35.4954 11.1106 35.3519 10.5178 35.0618 10.009L17.8031 19.9465L35.0826 29.9568C35.3596 29.4557 35.4972 28.8745 35.4975 28.2182C35.4975 28.2182 35.4975 17.2614 35.4957 11.7814Z" fill="#390091"/>
<path d="M28.0406 16.2038V18.0752H29.9119V16.2038H30.8476V18.0752H32.719V19.0109H30.8476V20.8822H32.719V21.8179H30.8476V23.6892H29.9119V21.8179H28.0406V23.6892H27.1049V21.8179H25.2336V20.8822H27.1049V19.0109H25.2336V18.0752H27.1049V16.2038H28.0406ZM29.9119 19.0109H28.0406V20.8822H29.9119V19.0109Z" fill="white"/>
<path d="M17.8412 6.8055C22.7223 6.8055 26.9839 9.45637 29.2665 13.3966L29.2442 13.3587L23.5013 16.6654C22.3699 14.7496 20.2956 13.4568 17.9162 13.4301L17.8412 13.4297C14.2127 13.4297 11.2709 16.3713 11.2709 19.9999C11.2709 21.1865 11.5873 22.2988 12.1375 23.2595C13.27 25.2366 15.399 26.5701 17.8412 26.5701C20.2985 26.5701 22.4397 25.2197 23.5664 23.2214L23.5391 23.2694L29.2733 26.5913C27.0157 30.4982 22.8125 33.1409 17.9882 33.1936L17.8412 33.1944C12.9448 33.1944 8.67105 30.5272 6.3942 26.5661C5.28268 24.6324 4.6467 22.3905 4.6467 19.9999C4.6467 12.7129 10.554 6.8055 17.8412 6.8055Z" fill="white"/>
</svg>
