<svg width="40" height="40" viewBox="0 0 40 40" fill="none" xmlns="http://www.w3.org/2000/svg">
<path d="M20.0621 10.5508C28.2973 4.15759 24.0708 0 24.0708 0C24.6998 6.60923 17.2663 8.16979 15.2736 12.7115C13.914 15.8106 16.2048 18.5241 20.0594 21.9443C19.7186 21.1868 19.193 20.4508 18.661 19.7056C16.8461 17.1641 14.9556 14.5165 20.0621 10.5508Z" fill="#E76F00"/>
<path d="M21.3769 23.3462C21.3769 23.3462 23.8544 21.3474 21.8924 19.126C15.2414 11.5898 29.1666 8.16978 29.1666 8.16978C20.6646 12.2656 21.9339 14.6967 24.0709 17.6502C26.3589 20.8172 21.3769 23.3462 21.3769 23.3462Z" fill="#E76F00"/>
<path d="M28.6713 29.307C36.3029 25.4072 32.7744 21.6597 30.3115 22.1646C29.7078 22.2881 29.4386 22.3952 29.4386 22.3952C29.4386 22.3952 29.6628 22.05 30.0908 21.9005C34.9631 20.2161 38.7103 26.8686 28.5179 29.5035C28.5179 29.5035 28.636 29.3997 28.6713 29.307Z" fill="#5382A1"/>
<path d="M12.7912 24.3711C8.01639 23.7441 15.4094 22.0174 15.4094 22.0174C15.4094 22.0174 12.5384 21.827 9.00739 23.5054C4.8322 25.4915 19.3351 26.3947 26.8425 24.4531C27.623 23.929 28.7017 23.4747 28.7017 23.4747C28.7017 23.4747 25.6296 24.0142 22.5701 24.2681C18.8265 24.5765 14.8074 24.6366 12.7912 24.3711Z" fill="#5382A1"/>
<path d="M14.608 28.0948C11.9453 27.824 13.6887 26.5549 13.6887 26.5549C6.79872 28.8036 17.5222 31.3538 27.1499 28.5853C26.1265 28.2305 25.4757 27.5816 25.4757 27.5816C20.7704 28.4726 18.0512 28.4441 14.608 28.0948Z" fill="#5382A1"/>
<path d="M15.7681 32.1239C13.1075 31.8231 14.6619 30.9342 14.6619 30.9342C8.40741 32.6527 18.4661 36.2031 26.4291 32.8471C25.1249 32.3484 24.191 31.7726 24.191 31.7726C20.6389 32.4336 18.9914 32.4855 15.7681 32.1239Z" fill="#5382A1"/>
<path d="M32.4234 34.1735C32.4234 34.1735 33.5736 35.1055 31.1565 35.8265C26.5601 37.1957 12.0262 37.6092 7.98868 35.8811C6.5373 35.2602 9.25904 34.3986 10.1152 34.2177C11.0081 34.0274 11.5183 34.0629 11.5183 34.0629C9.90425 32.9447 1.08561 36.2584 7.03889 37.2074C23.2744 39.7965 36.6346 36.0414 32.4234 34.1735Z" fill="#5382A1"/>
<path d="M35 36.2099C34.7336 39.6184 23.4846 40.3354 16.1592 39.8742C11.3804 39.5729 10.4226 38.8197 10.4086 38.8087C14.9824 39.5502 22.6936 39.6852 28.946 38.5281C34.4879 37.502 35 36.2099 35 36.2099Z" fill="#5382A1"/>
</svg>
