<svg width="40" height="41" viewBox="0 0 40 41" fill="none" xmlns="http://www.w3.org/2000/svg">
<g clip-path="url(#clip0_12_2)">
<path d="M39.845 24.6331C39.6052 23.9288 38.9769 23.4382 38.1644 23.3205C37.7812 23.2651 37.3425 23.2887 36.8233 23.3925C35.9183 23.5735 35.2469 23.6425 34.7569 23.6558C36.6064 20.6281 38.1103 17.1754 38.9761 13.9253C40.3761 8.66987 39.628 6.27572 38.7537 5.1928C36.4402 2.32642 33.0647 0.786569 28.9925 0.739453C26.8202 0.713698 24.9131 1.12957 23.9183 1.42863C22.992 1.27016 21.9961 1.18168 20.9511 1.16532C18.9922 1.13502 17.2614 1.54907 15.7825 2.40004C14.9638 2.13159 13.6497 1.75314 12.1322 1.51165C8.56313 0.943523 5.68656 1.38621 3.5825 2.82743C1.03469 4.5724 -0.146404 7.60422 0.0720335 11.8386C0.141409 13.1831 0.917034 17.2736 2.13828 21.1529C2.84016 23.3826 3.5886 25.2343 4.36281 26.6569C5.46078 28.6741 6.63563 29.862 7.95453 30.2886C8.69375 30.5274 10.0369 30.6946 11.4495 29.5538C11.6286 29.7641 11.8675 29.973 12.1845 30.1671C12.5872 30.4133 13.0795 30.6145 13.5713 30.7337C15.3433 31.1632 17.0031 31.0558 18.4192 30.4538C18.428 30.698 18.4347 30.9313 18.4403 31.1328C18.4497 31.4596 18.4591 31.78 18.4714 32.0797C18.5553 34.1058 18.6975 35.6813 19.1188 36.7836C19.1419 36.8442 19.173 36.9366 19.2058 37.0346C19.4159 37.6585 19.7673 38.7029 20.6614 39.5209C21.5872 40.3682 22.707 40.628 23.7327 40.628C24.247 40.628 24.7378 40.5626 25.1683 40.4732C26.7027 40.1543 28.4453 39.6686 29.7059 37.9282C30.8978 36.2829 31.4772 33.8048 31.582 29.9002C31.5956 29.7897 31.6081 29.6843 31.6202 29.5838L31.6452 29.3775L31.9259 29.4014L31.9983 29.4061C33.5611 29.4752 35.472 29.1539 36.6456 28.6253C37.573 28.2081 40.5447 26.6869 39.845 24.6331Z" fill="black"/>
<path d="M37.1728 25.0325C32.5259 25.9619 32.2064 24.4365 32.2064 24.4365C37.1127 17.3776 39.1637 8.41747 37.3939 6.2245C32.5652 0.242525 24.2066 3.07164 24.067 3.14496L24.0222 3.15284C23.1041 2.96801 22.0767 2.85802 20.9219 2.83969C18.8194 2.80636 17.2244 3.37418 16.0141 4.26409C16.0141 4.26409 1.10313 -1.69198 1.79672 11.7549C1.94422 14.6155 6.02547 33.4001 10.8933 27.7263C12.6725 25.6515 14.3917 23.8973 14.3917 23.8973C15.2455 24.4472 16.2677 24.7278 17.3392 24.6271L17.4225 24.5586C17.3966 24.8161 17.4084 25.0681 17.4558 25.3664C16.2017 26.7249 16.5703 26.9633 14.0634 27.4637C11.5267 27.9707 13.0169 28.873 13.9898 29.109C15.1694 29.3949 17.8981 29.8 19.7419 27.2974L19.6684 27.583C20.1597 27.9646 20.5047 30.065 20.4469 31.9692C20.3891 33.8733 20.3505 35.1805 20.7375 36.2017C21.1248 37.2228 21.5106 39.5203 24.8063 38.8356C27.5598 38.2634 28.9869 36.7807 29.1855 34.3073C29.3263 32.549 29.6452 32.809 29.6652 31.2369L29.9209 30.4927C30.2158 28.1091 29.9678 27.3401 31.6642 27.6978L32.0767 27.733C33.3252 27.788 34.9595 27.5381 35.9188 27.1059C37.9841 26.1766 39.2091 24.6248 37.1725 25.0325H37.1728Z" fill="#336791"/>
<path d="M16.8869 13.0341C16.4681 12.9776 16.0889 13.0299 15.897 13.1708C15.7892 13.25 15.7558 13.3418 15.7467 13.405C15.7226 13.5724 15.8436 13.7575 15.918 13.853C16.1283 14.1233 16.4355 14.309 16.7395 14.3499C16.7836 14.356 16.8275 14.3587 16.8711 14.3587C17.3781 14.3587 17.8392 13.9759 17.8798 13.6933C17.9306 13.3394 17.4008 13.1034 16.8869 13.0341ZM30.7594 13.0453C30.7194 12.7679 30.2103 12.6889 29.7272 12.754C29.2447 12.8192 28.7769 13.0303 28.8159 13.3083C28.8472 13.5245 29.2498 13.8936 29.7264 13.8936C29.7667 13.8936 29.8073 13.891 29.8483 13.8854C30.1664 13.8427 30.3998 13.6468 30.5108 13.5339C30.6795 13.3618 30.7773 13.17 30.7594 13.0453Z" fill="white"/>
<path d="M38.7191 24.9269C38.5419 24.4074 37.9716 24.2403 37.0241 24.43C34.2108 24.9929 33.2033 24.603 32.8725 24.3668C35.0592 21.1368 36.8581 17.2323 37.8286 13.5895C38.2883 11.8639 38.5422 10.2614 38.563 8.95514C38.5859 7.5215 38.3341 6.46797 37.8147 5.82439C35.7206 3.22996 32.6472 1.83828 28.9269 1.8001C26.3692 1.77222 24.2083 2.40686 23.7894 2.58532C22.9072 2.37262 21.9455 2.24203 20.8984 2.22536C18.9784 2.19521 17.3187 2.64092 15.9447 3.54947C15.3478 3.33404 13.8053 2.8206 11.9189 2.52594C8.65765 2.0169 6.06608 2.40262 4.21671 3.67294C2.00999 5.18885 0.99124 7.89858 1.18858 11.7267C1.25499 13.0146 2.01187 16.9766 3.20624 20.7709C4.77843 25.765 6.48749 28.5921 8.28562 29.1737C8.49608 29.2418 8.73874 29.2893 9.0064 29.2893C9.66233 29.2893 10.4666 29.0027 11.3033 28.0273C12.3238 26.8403 13.3795 25.682 14.4691 24.554C15.1759 24.9219 15.9525 25.1273 16.7467 25.1479C16.7483 25.1681 16.7503 25.1882 16.7522 25.2082C16.6155 25.3663 16.4816 25.5266 16.3506 25.6892C15.8003 26.3666 15.6858 26.5076 13.9144 26.8612C13.4105 26.9621 12.0722 27.2295 12.0525 28.1391C12.0312 29.133 13.6345 29.5504 13.8172 29.5946C14.4537 29.7491 15.067 29.8253 15.6519 29.8253C17.0742 29.8253 18.3259 29.372 19.3262 28.495C19.2955 32.038 19.4478 35.5292 19.8866 36.5928C20.2459 37.4637 21.1237 39.5918 23.8966 39.5916C24.3034 39.5916 24.7512 39.5457 25.2439 39.4433C28.1378 38.8419 29.3945 37.6017 29.8806 34.8675C30.1408 33.4063 30.5872 29.9171 30.7972 28.0455C31.2403 28.1796 31.8108 28.2409 32.4275 28.2408C33.7137 28.2408 35.198 27.9758 36.1287 27.5569C37.1744 27.0861 39.0612 25.9307 38.7191 24.9269ZM31.8275 12.2797C31.818 12.8322 31.7395 13.3338 31.6564 13.8574C31.5669 14.4205 31.4744 15.0027 31.4511 15.7095C31.4281 16.3973 31.5167 17.1124 31.6023 17.804C31.7755 19.2008 31.9531 20.6388 31.2655 22.0578C31.1512 21.8615 31.0495 21.6587 30.9608 21.4504C30.8753 21.2495 30.6897 20.9268 30.4326 20.4802C29.4328 18.7416 27.0914 14.6702 28.29 13.0088C28.647 12.5143 29.5531 12.0059 31.8275 12.2797ZM29.0706 2.91893C32.4041 2.99028 35.0409 4.19941 36.9078 6.51251C38.3397 8.28672 36.763 16.3597 32.1984 23.3243C32.1525 23.2677 32.1064 23.2113 32.06 23.1551L32.0022 23.0851C33.1817 21.1963 32.9511 19.3276 32.7458 17.6708C32.6614 16.9909 32.5817 16.3486 32.602 15.7454C32.623 15.106 32.7101 14.5576 32.7945 14.0274C32.8981 13.3739 33.0036 12.6978 32.9745 11.9008C32.9962 11.8171 33.005 11.7184 32.9936 11.6011C32.9194 10.8368 32.0194 8.54927 30.185 6.47887C29.1816 5.34641 27.7183 4.07911 25.7203 3.22435C26.5797 3.05164 27.7548 2.8906 29.0706 2.91893ZM10.4178 27.3135C9.49593 28.3882 8.85937 28.1822 8.64999 28.1146C7.28593 27.6734 5.70312 24.8779 4.30765 20.4451C3.10015 16.6094 2.39452 12.7523 2.33858 11.6708C2.16233 8.25021 3.01749 5.86636 4.88046 4.58528C7.91233 2.50064 12.897 3.74839 14.9 4.38121C14.8712 4.40878 14.8412 4.43453 14.8128 4.46256C11.5259 7.68103 11.6039 13.1799 11.612 13.516C11.6117 13.6457 11.623 13.8294 11.6383 14.0819C11.6948 15.0068 11.8001 16.7282 11.5189 18.6775C11.2576 20.489 11.8336 22.262 13.0987 23.542C13.2286 23.6731 13.3651 23.7979 13.5076 23.9159C12.9445 24.5007 11.7206 25.7939 10.4178 27.3135ZM13.9301 22.7695C12.9105 21.7378 12.4473 20.3028 12.6594 18.832C12.9562 16.7728 12.8467 14.9794 12.7878 14.0158C12.7795 13.881 12.7722 13.7628 12.768 13.6697C13.2481 13.2568 15.4733 12.1009 17.0601 12.4534C17.7842 12.6142 18.2255 13.0923 18.4089 13.9146C19.3583 18.1723 18.5345 19.9468 17.8726 21.3728C17.7362 21.6666 17.6073 21.9443 17.4973 22.2315L17.412 22.4536C17.1961 23.0151 16.9951 23.5372 16.8706 24.0329C15.7866 24.0298 14.732 23.5808 13.9301 22.7694V22.7695ZM14.0966 28.5114C13.78 28.4347 13.4953 28.3015 13.3283 28.1911C13.4678 28.1275 13.7161 28.0408 14.1467 27.9548C16.2306 27.5389 16.5525 27.2453 17.2553 26.3801C17.4164 26.1816 17.5991 25.9568 17.852 25.6829L17.8523 25.6826C18.2291 25.2735 18.4014 25.3429 18.7139 25.4686C18.9672 25.5701 19.2139 25.878 19.3139 26.2167C19.3612 26.3767 19.4144 26.6803 19.2405 26.9167C17.7723 28.9098 15.633 28.8842 14.0966 28.5114ZM25.0026 38.3516C22.4533 38.8812 21.5506 37.62 20.9558 36.1782C20.5719 35.2474 20.3831 31.0499 20.517 26.4145C20.5187 26.3528 20.5097 26.2933 20.4922 26.2372C20.4765 26.1265 20.4527 26.017 20.4209 25.9097C20.2219 25.2352 19.7367 24.671 19.1547 24.4371C18.9234 24.3442 18.4991 24.1738 17.9891 24.3003C18.0978 23.8658 18.2864 23.3751 18.4909 22.8438L18.5767 22.6203C18.6733 22.3683 18.7945 22.1073 18.9226 21.831C19.6153 20.339 20.5639 18.2954 19.5344 13.6788C19.1487 11.9495 17.8609 11.1051 15.9087 11.3013C14.7384 11.4187 13.6676 11.8765 13.1336 12.1391C13.0187 12.1954 12.9137 12.25 12.8156 12.303C12.9647 10.5607 13.5278 7.3047 15.6344 5.2446C16.9608 3.94776 18.7272 3.30722 20.8794 3.34176C25.12 3.40903 27.8394 5.51912 29.3741 7.27758C30.6966 8.79273 31.4126 10.3191 31.6984 11.1423C29.5492 10.9304 28.0875 11.3417 27.3466 12.3689C25.7345 14.6032 28.2284 18.9397 29.427 21.0239C29.6469 21.4059 29.8366 21.736 29.8962 21.8763C30.2866 22.7935 30.7919 23.4058 31.1608 23.8527C31.2739 23.9897 31.3836 24.1226 31.467 24.2386C30.8161 24.4206 29.6469 24.841 29.7534 26.9424C29.6675 27.9969 29.0564 32.9337 28.7459 34.6779C28.3361 36.9822 27.4616 37.8404 25.0026 38.3517V38.3516ZM35.6439 26.5443C34.9783 26.8438 33.8644 27.0685 32.8062 27.1168C31.6375 27.1698 31.0425 26.9899 30.9025 26.8791C30.8369 25.5695 31.3395 25.4327 31.8716 25.2879C31.9551 25.2652 32.0367 25.2429 32.1155 25.2162C32.1644 25.2549 32.218 25.2932 32.2767 25.3308C33.2161 25.9319 34.8916 25.9968 37.257 25.5233L37.283 25.5183C36.9639 25.8075 36.418 26.1957 35.6439 26.5443Z" fill="white"/>
</g>
<defs>
<clipPath id="clip0_12_2">
<rect width="40" height="40" fill="white" transform="translate(0 0.68309)"/>
</clipPath>
</defs>
</svg>

