
<svg width="40" height="41" viewBox="0 0 40 41" fill="none" xmlns="http://www.w3.org/2000/svg">
<path d="M23.3486 20.3361C23.3486 18.5431 21.8495 17.0893 20 17.0893C18.1507 17.0893 16.6514 18.5431 16.6514 20.3361C16.6514 22.1293 18.1507 23.5829 20 23.5829C21.8495 23.5829 23.3486 22.1293 23.3486 20.3361Z" fill="#53C1DE"/>
<path fill-rule="evenodd" clip-rule="evenodd" d="M30.8755 14.3083C31.5826 11.5222 32.4715 6.35553 29.338 4.60388C26.2191 2.85987 22.1605 6.20172 20.0174 8.20765C17.8805 6.2217 13.7079 2.89414 10.577 4.65135C7.45939 6.40122 8.4208 11.4822 9.14362 14.2858C6.23539 15.0867 1.25 16.8117 1.25 20.3361C1.25 23.8504 6.2302 25.7272 9.12122 26.5273C8.39572 29.3464 7.48245 34.3548 10.6041 36.1008C13.7466 37.8577 17.9063 34.6093 20.0693 32.5814C22.2261 34.5992 26.2458 37.8688 29.3653 36.1179C32.4945 34.3616 31.6795 29.2642 30.9566 26.4443C33.7591 25.6424 38.75 23.8066 38.75 20.3361C38.75 16.8456 33.7379 15.1066 30.8755 14.3083ZM30.5203 24.9499C30.0456 23.4932 29.405 21.9441 28.6214 20.3438C29.3694 18.7813 29.9851 17.2522 30.4465 15.8048C32.5449 16.3947 37.1481 17.7428 37.1481 20.3361C37.1481 22.9537 32.7308 24.3146 30.5203 24.9499ZM28.5625 34.7737C26.235 36.0799 22.7776 32.9532 21.1847 31.4673C22.2415 30.3467 23.2975 29.0439 24.3281 27.5973C26.1411 27.4414 27.8538 27.1864 29.407 26.8383C29.9158 28.8329 30.9003 33.4616 28.5625 34.7737ZM11.4045 34.7551C9.07679 33.4537 10.1407 28.9844 10.6745 26.9078C12.2104 27.2373 13.9108 27.4743 15.728 27.6172C16.7654 29.0327 17.852 30.3338 18.947 31.4733C17.5941 32.7422 13.7431 36.0624 11.4045 34.7551ZM2.85186 20.3361C2.85186 17.7087 7.42759 16.3703 9.5738 15.7819C10.0431 17.2618 10.6587 18.8092 11.4015 20.3739C10.6491 21.9619 10.0247 23.5338 9.55106 25.0312C7.50461 24.4632 2.85186 22.9651 2.85186 20.3361ZM11.3796 5.9956C13.7169 4.68388 17.3434 7.87847 18.8949 9.31634C17.8055 10.4506 16.7289 11.7419 15.7004 13.1493C13.9367 13.3078 12.2484 13.5623 10.6964 13.9033C10.1141 11.6421 9.0449 7.30592 11.3796 5.9956ZM25.4741 14.8376C26.6706 14.9839 27.817 15.1787 28.8934 15.4169C28.5702 16.4212 28.1675 17.4713 27.6931 18.5478C27.0055 17.2828 26.2674 16.0432 25.4741 14.8376ZM20.0179 10.4263C20.7568 11.2024 21.4967 12.0691 22.2248 13.0093C20.7481 12.9416 19.2691 12.9413 17.7925 13.0083C18.5211 12.0768 19.2675 11.2114 20.0179 10.4263ZM12.3206 18.5467C11.8541 17.4739 11.455 16.4192 11.129 15.4006C12.199 15.1684 13.34 14.9787 14.5288 14.8347C13.7333 16.0377 12.9964 17.2768 12.3206 18.5467ZM14.5629 25.9483C13.3349 25.8154 12.1766 25.6353 11.1069 25.4096C11.4381 24.3731 11.846 23.2956 12.3224 22.1997C13.0075 23.4828 13.7556 24.7339 14.5629 25.9483ZM20.0623 30.3556C19.303 29.5612 18.5456 28.6826 17.806 27.7376C19.291 27.7941 20.7789 27.7942 22.2638 27.7299C21.5335 28.6922 20.7961 29.5721 20.0623 30.3556ZM27.7084 22.1439C28.2096 23.2517 28.6321 24.3233 28.9678 25.3423C27.8804 25.5829 26.7065 25.7767 25.4696 25.9206C26.2687 24.6921 27.0186 23.4332 27.7084 22.1439ZM23.4341 26.1088C21.1626 26.2662 18.877 26.2644 16.6047 26.1217C15.3136 24.2931 14.1642 22.3699 13.1721 20.3734C14.1595 18.3811 15.3005 16.4617 16.5855 14.6359C18.8594 14.4693 21.1473 14.4688 23.4211 14.6369C24.6951 16.4626 25.8344 18.3769 26.8446 20.3513C25.8464 22.3427 24.6994 24.2659 23.4341 26.1088ZM28.5379 5.94943C30.8757 7.25685 29.8351 11.9003 29.3244 13.9194C27.7686 13.5713 26.0791 13.3123 24.3104 13.1513C23.2799 11.7287 22.2122 10.4352 21.1405 9.31554C22.7119 7.84669 26.2226 4.65479 28.5379 5.94943Z" fill="#53C1DE"/>
</svg>
