<svg width="40" height="40" viewBox="0 0 40 40" fill="none" xmlns="http://www.w3.org/2000/svg">
<path d="M38.1257 0H1.87429C0.839146 0 0 0.839146 0 1.87429V38.1257C0 39.1609 0.839146 40 1.87429 40H38.1257C39.1609 40 40 39.1609 40 38.1257V1.87429C40 0.839146 39.1609 0 38.1257 0Z" fill="#3178C6"/>
<path fill-rule="evenodd" clip-rule="evenodd" d="M23.2072 31.0843V35.4671C24.0035 35.8602 24.8522 36.1368 25.7272 36.2886C26.7383 36.4752 27.7647 36.5671 28.7929 36.5629C29.795 36.5676 30.7948 36.4666 31.7757 36.2614C32.6564 36.0835 33.4967 35.7445 34.2543 35.2614C34.9576 34.8074 35.5373 34.186 35.9414 33.4529C36.6652 31.9347 36.7607 30.1924 36.2072 28.6043C35.9736 28.0104 35.6256 27.4682 35.1829 27.0086C34.7077 26.5198 34.1679 26.0983 33.5786 25.7557C32.9001 25.3583 32.1951 25.008 31.4686 24.7071C30.8972 24.47 30.3829 24.2395 29.9257 24.0157C29.5197 23.8213 29.1311 23.5924 28.7643 23.3314C28.477 23.13 28.2275 22.8795 28.0272 22.5914C27.8541 22.3299 27.764 22.0222 27.7686 21.7086C27.7648 21.4199 27.8452 21.1365 28 20.8929C28.1682 20.6379 28.3925 20.4248 28.6557 20.27C28.9775 20.0805 29.3277 19.944 29.6929 19.8657C30.1412 19.7661 30.5994 19.7182 31.0586 19.7229C31.4448 19.7242 31.8304 19.7519 32.2129 19.8057C32.6259 19.8615 33.0345 19.946 33.4357 20.0586C33.8439 20.1717 34.2431 20.3149 34.63 20.4871C35.0055 20.6545 35.3647 20.8563 35.7029 21.09V17C34.9988 16.7336 34.2685 16.5421 33.5243 16.4286C32.6256 16.2978 31.7182 16.2362 30.81 16.2443C29.8173 16.2389 28.8275 16.3516 27.8614 16.58C26.9882 16.7795 26.1579 17.1342 25.41 17.6271C24.7153 18.0899 24.1416 18.7126 23.7372 19.4429C23.3085 20.2538 23.0965 21.1617 23.1214 22.0786C23.0898 23.2911 23.4892 24.4756 24.2486 25.4214C25.1803 26.4701 26.3551 27.2741 27.67 27.7629C28.27 28.0105 28.8295 28.2529 29.3486 28.49C29.8169 28.6984 30.267 28.9454 30.6943 29.2286C31.0389 29.4528 31.3416 29.7356 31.5886 30.0643C31.8058 30.3624 31.921 30.7226 31.9172 31.0914C31.9191 31.3678 31.8482 31.6398 31.7114 31.88C31.5595 32.1381 31.346 32.3546 31.09 32.51C30.7697 32.7053 30.4192 32.8462 30.0529 32.9271C29.5756 33.0338 29.0875 33.0842 28.5986 33.0771C27.639 33.0754 26.6871 32.9062 25.7857 32.5771C24.844 32.2373 23.9708 31.7317 23.2072 31.0843ZM15.8443 20.1729H21.5586V16.5629H5.62573V20.1729H11.3143V36.25H15.8443V20.1729Z" fill="white"/>
</svg>
