<svg width="40" height="41" viewBox="0 0 40 41" fill="none" xmlns="http://www.w3.org/2000/svg">
<g clip-path="url(#clip0_19_23)">
<path d="M20.0445 0.669983L0.380554 20.2704L20.0445 39.9615L39.6182 20.2704L20.0445 0.669983Z" fill="#019833"/>
<path d="M20.0411 2.46985V0.815216L0.509583 20.274H2.1832L20.0411 2.46985Z" fill="#66FE98"/>
<path d="M20.0411 2.46985V0.815216L39.6333 20.274H37.8222L20.0411 2.46985Z" fill="#45FE02"/>
<path d="M20.0411 38.1617V39.9934L0.509583 20.274H2.1832L20.0411 38.1617Z" fill="#017D17"/>
<path d="M20.0411 38.1617V39.9934L39.6333 20.274H37.8222L20.0411 38.1617Z" fill="#005D04"/>
<path d="M10.2297 36.2558H6.44358L4.96498 34.8149V7.30003H3.79144L2.78677 6.29396V3.21832L3.82755 2.08945H17.0688L18.2593 3.28135V6.20058L17.27 7.40633H16.2696V16.7072L25.6839 7.40633H25.1583L24.0634 6.22548V3.13007L25.1391 2.14252H38.5044L39.5622 3.20167V6.12929L10.2297 36.2558Z" fill="black"/>
<path d="M20.0411 40.2638L0.0778198 20.274L20.0411 0.36618L39.9222 20.274L20.0411 40.2638ZM0.689337 20.274L20.0411 39.6518L39.3103 20.274L20.0411 0.978632L0.689337 20.274Z" fill="black"/>
<path d="M16.8988 3.9058L17.487 3.52588L16.8861 2.90207H4.14881L3.50165 3.55016V6.00152L4.21916 6.71997L4.56141 6.00152L4.1113 5.55063V3.82254L4.44889 3.52199L16.4744 3.53678L16.8988 3.9058Z" fill="#FEFEFE"/>
<path d="M6.53043 5.9433V34.6334L6.93385 35.0175L6.61058 35.6284L5.76218 34.7928V6.68711L6.53043 5.9433Z" fill="#FEFEFE"/>
<path d="M4.47253 5.9433L4.21915 6.71995H5.75782L6.64794 5.9433H4.47253Z" fill="#808080"/>
<path d="M25.9971 5.95326L25.459 5.57318V4.03294L26.0218 3.46936H37.7648L38.2151 4.07045L38.8559 3.56477L38.1963 2.96213H25.5715L24.943 3.59139V6.06158L25.6048 6.66049M15.3924 18.5375L14.1661 21.5171L28.0101 7.61691L27.9424 5.93536L15.3924 18.5375Z" fill="#FEFEFE"/>
<path d="M16.8711 3.89475L17.487 3.52588V5.94331L16.784 6.64728H15.4177L15.3924 18.5376L14.1707 21.5103V5.94331H16.4523L16.8767 5.59794L16.8711 3.89475Z" fill="#808080"/>
<path d="M38.1734 3.90269L38.8559 3.56479V5.77226L9.79114 35.6284H6.6106L6.92095 35.0417L9.36375 35.0418L38.1776 5.25008L38.1734 3.90269Z" fill="#808080"/>
<path d="M27.9424 5.93536L27.2346 6.64649L25.6048 6.6605L26.0028 5.9461C26.016 5.9461 27.9424 5.93536 27.9424 5.93536Z" fill="#808080"/>
<path d="M25.9102 3.44635L25.4604 3.89662V5.55016L25.8543 5.94456H27.9356V7.54223L14.1675 21.5162V5.96433H16.4556L16.925 5.49429V3.82098L16.4917 3.48573H4.45027L4.05634 3.88028V5.58954L4.4568 5.99063H6.55128V34.6291L6.94521 35.0235H9.32529L38.1781 5.21149V3.89662L37.7282 3.44635H25.9102Z" fill="#CCCCCC"/>
<path d="M9.34148 35.0616H6.9295L6.51331 34.6448V6.02859H4.4411L4.01837 5.60525V3.86439L4.43456 3.44774H16.5048L16.9631 3.80229V5.50999L16.4714 6.00229H14.2055V21.4235L27.8976 7.52649V5.98268H25.8386L25.4224 5.56587V3.88089L25.8943 3.4082H37.744L38.216 3.88089V5.22688L38.2055 5.23793L9.34148 35.0616ZM6.9611 34.9855H9.30927L38.1401 5.19622V3.91233L37.7125 3.48431H25.9259L25.4984 3.91233V5.53443L25.87 5.90657H27.9737V7.55778L27.9628 7.56883L14.1295 21.609V5.92634H16.4399L16.887 5.4784V3.83964L16.4788 3.52369H4.466L4.09432 3.89599V5.57381L4.47269 5.95264H6.58927V34.6132L6.9611 34.9855Z" fill="#808080"/>
<path d="M21.0219 22.7505C21 22.755 20.9798 22.7652 20.9628 22.78L20.4048 23.2599C20.3882 23.2751 20.3757 23.2943 20.3687 23.3157L19.8106 24.8806C19.7938 24.9274 19.8053 24.9797 19.8401 25.0154L20.2669 25.4426C20.2917 25.4664 20.3247 25.4793 20.3589 25.4789H22.0823C22.1166 25.4793 22.1496 25.4664 22.1741 25.4426L22.624 24.9891C22.6395 24.9735 22.6507 24.9542 22.6568 24.9332L23.1362 23.2862C23.1494 23.2407 23.1368 23.1915 23.1033 23.1581L22.7323 22.7866C22.7077 22.7628 22.6745 22.7498 22.6404 22.7505H21.0482C21.0395 22.7495 21.0306 22.7495 21.0219 22.7505ZM17.864 27.1618C17.8155 27.1722 17.7774 27.2093 17.7654 27.2572L17.552 28.1053C17.5348 28.1747 17.5769 28.2452 17.6464 28.2625C17.6563 28.265 17.6664 28.2663 17.6767 28.2664H18.6912L16.1765 35.4555C16.1538 35.5235 16.1903 35.597 16.2582 35.6197C16.271 35.6241 16.2843 35.6264 16.298 35.6266H19.9583C20.0148 35.6273 20.0652 35.5914 20.0831 35.5377L20.3228 34.7652C20.3436 34.6968 20.3052 34.6242 20.2367 34.6032C20.2243 34.5995 20.2112 34.5975 20.198 34.5976H19.3707L21.8591 27.3329C21.8819 27.2649 21.8453 27.1914 21.7774 27.1687C21.7647 27.1643 21.7511 27.162 21.7376 27.1618H17.8901C17.8814 27.161 17.8727 27.161 17.864 27.1618ZM29.5114 27.1881C29.4833 27.194 29.4577 27.209 29.439 27.2309L28.6775 28.0921H27.4661L26.6585 27.254C26.6344 27.2289 26.6014 27.2147 26.5667 27.2144H23.6745C23.6201 27.2146 23.5715 27.2487 23.553 27.2999L23.2871 28.0955C23.2644 28.1634 23.3008 28.2368 23.3687 28.2597C23.3816 28.2639 23.395 28.2663 23.4085 28.2664H24.1833L21.7737 35.3766C21.751 35.4446 21.7875 35.5181 21.8554 35.541C21.8682 35.5452 21.8817 35.5475 21.8952 35.5477H24.9745C25.0289 35.5475 25.0773 35.5134 25.096 35.4622L25.3323 34.7685C25.355 34.7007 25.3186 34.627 25.2507 34.6043C25.2378 34.6 25.2244 34.5978 25.2109 34.5976H24.6725L26.2089 29.7554H28.9894L27.2364 35.38C27.2154 35.4485 27.2538 35.521 27.3223 35.5419C27.3349 35.5458 27.348 35.5477 27.3611 35.5477H30.332C30.3836 35.5472 30.43 35.5162 30.4503 35.4687L30.7161 34.8309C30.7426 34.7645 30.71 34.689 30.6436 34.6627C30.6289 34.6569 30.6135 34.6538 30.598 34.6535H30.0596L31.6222 29.7291H34.2682L32.4889 35.38C32.468 35.4485 32.5064 35.521 32.5748 35.5419C32.5874 35.5458 32.6005 35.5477 32.6137 35.5477H35.8767C35.9303 35.548 35.9787 35.5153 35.9983 35.4655L36.2641 34.7718C36.2887 34.7045 36.2541 34.6301 36.1869 34.6056C36.1727 34.6003 36.1578 34.5976 36.1427 34.5976H35.4959L37.4624 28.204C37.4755 28.1635 37.4682 28.1195 37.4426 28.0856L36.832 27.2638C36.8068 27.2317 36.7678 27.2133 36.727 27.2144H34.393C34.357 27.2138 34.3226 27.2281 34.2977 27.254L33.5623 28.0625H32.2755L31.5139 27.2277C31.489 27.2018 31.4545 27.1875 31.4187 27.1881H29.5376C29.5289 27.1873 29.5201 27.1873 29.5114 27.1881Z" fill="#CCCCCC"/>
<path d="M20.0559 25.6617C20.1373 25.7402 20.2437 25.7831 20.3518 25.7831C20.3541 25.7831 20.3564 25.7831 20.3589 25.783H22.0771C22.1925 25.7866 22.3018 25.742 22.3904 25.6569L22.8391 25.2041C22.8911 25.1522 22.9292 25.0873 22.949 25.0182L23.4282 23.3715C23.4725 23.2191 23.4305 23.0547 23.3185 22.9431L22.9435 22.5676C22.8602 22.4873 22.7508 22.4431 22.6405 22.4462H21.0592C21.0364 22.4449 21.0137 22.4454 20.9913 22.4477L20.9594 22.4527C20.8862 22.4681 20.8179 22.5022 20.7645 22.5492L20.2064 23.0292L20.2 23.035C20.1457 23.0845 20.1048 23.147 20.0811 23.2166L19.5242 24.7778C19.4683 24.9336 19.5072 25.1104 19.6249 25.2303L20.0559 25.6617ZM22.5701 23.0546L22.8153 23.3L22.377 24.806L22.0118 25.1746L20.4293 25.1747L20.134 24.879L20.6409 23.458L21.1101 23.0546H22.5701Z" fill="black"/>
<path d="M37.6868 27.9041L37.0763 27.0823L37.0708 27.0753C36.9877 26.9698 36.8591 26.9086 36.7245 26.9103H34.398C34.277 26.9075 34.1623 26.9564 34.0791 27.0423L33.4279 27.7584H32.4098L31.7387 27.0227L31.7324 27.016C31.6493 26.9301 31.5343 26.8842 31.4187 26.884H29.5485C29.5259 26.8828 29.503 26.8832 29.4806 26.8856L29.4492 26.8904C29.3556 26.9098 29.2699 26.9607 29.2112 27.0294L28.5404 27.788H27.5955L26.8772 27.0424C26.797 26.9595 26.6847 26.9112 26.5667 26.9103H23.6736C23.4923 26.9108 23.329 27.0256 23.2671 27.1962L22.9987 27.9986C22.9226 28.2253 23.0451 28.4719 23.2721 28.5481C23.315 28.5624 23.3598 28.5701 23.4086 28.5705H23.7591L21.4851 35.2803C21.4095 35.5067 21.532 35.7531 21.7586 35.8294C21.8017 35.8437 21.8465 35.8513 21.8952 35.8518H24.9754C25.1569 35.8513 25.3203 35.7363 25.384 35.5603L25.6208 34.8652C25.6966 34.6386 25.5742 34.3922 25.3474 34.3159C25.3043 34.3014 25.2594 34.2938 25.2109 34.2933H25.0881L26.4314 30.0597H28.5759L26.9454 35.291C26.8755 35.5198 27.0047 35.7628 27.2328 35.8326C27.275 35.8456 27.3201 35.8509 27.3611 35.8518H30.3346C30.5074 35.8504 30.6627 35.7467 30.731 35.5858L30.9991 34.943C31.087 34.7206 30.9779 34.468 30.7566 34.3802C30.7072 34.3604 30.6554 34.3502 30.598 34.3492H30.4753L31.8448 30.0334H33.8534L32.1978 35.2913C32.1282 35.52 32.2574 35.7629 32.4854 35.8326C32.5267 35.8454 32.5696 35.8518 32.6114 35.8518H32.6137H35.8747C36.0549 35.8507 36.2162 35.7425 36.2823 35.5743L36.5499 34.8762C36.6319 34.6516 36.5161 34.402 36.2915 34.3198C36.2444 34.3025 36.1947 34.2937 36.1427 34.2933H35.9077L37.7516 28.2983C37.7955 28.1638 37.7709 28.0158 37.6868 27.9041ZM35.084 34.9017H35.8886L35.7575 35.2434H32.8507L34.683 29.425H31.3995L29.6439 34.9578H30.3337L30.2146 35.2434H27.5975L29.4028 29.4513H25.9861L24.2568 34.9017H24.9656L24.8492 35.2434H22.1401L24.6076 27.9621H23.6524L23.8006 27.5187H26.4912L27.3368 28.3964H28.8146L29.6138 27.4924L31.3436 27.4923L32.1412 28.3668H33.697L34.4682 27.5187H36.6425L37.1461 28.1967L35.084 34.9017Z" fill="black"/>
<path d="M20.3262 34.3125C20.2842 34.2996 20.2422 34.2944 20.198 34.2933H19.7964L22.1476 27.4297C22.2237 27.2028 22.101 26.9564 21.8741 26.8801C21.8313 26.8658 21.7865 26.8582 21.7376 26.8577H17.901C17.8783 26.8565 17.8556 26.8569 17.833 26.8593L17.7998 26.8645C17.637 26.8996 17.5107 27.0217 17.4704 27.183L17.2568 28.0319C17.1991 28.2638 17.3407 28.4996 17.5734 28.5579C17.6064 28.566 17.6405 28.5704 17.6767 28.5705H18.2624L15.8881 35.3589C15.812 35.5858 15.9348 35.8322 16.1614 35.9083C16.2045 35.9226 16.2493 35.9302 16.2981 35.9307H19.9539H19.9603C20.1477 35.9307 20.3125 35.8119 20.3737 35.6278L20.6137 34.8541C20.6836 34.6255 20.5544 34.3824 20.3262 34.3125ZM16.5454 35.3223L19.1198 27.9621H17.9018L18.0266 27.4661H21.4918L18.9449 34.9017H19.9619L19.8314 35.3223H16.5454Z" fill="black"/>
</g>
<defs>
<clipPath id="clip0_19_23">
<rect width="40" height="40" fill="white" transform="translate(0 0.36618)"/>
</clipPath>
</defs>
</svg>
